{"glyphs":{"0":{"ha":1318,"x_min":97,"x_max":1219,"o":"m 1219 194 l 1219 710 q 1159 856 1219 796 q 1014 917 1099 917 l 304 917 q 158 856 218 917 q 97 710 97 796 l 97 194 q 158 48 97 108 q 304 -12 218 -12 l 1014 -12 q 1159 48 1099 -12 q 1219 194 1219 108 m 1065 194 q 1050 157 1065 172 q 1014 142 1035 142 l 304 142 q 268 157 283 142 q 253 194 253 172 l 253 710 q 268 746 253 731 q 304 761 283 761 l 1014 761 q 1050 746 1035 761 q 1065 710 1065 731 l 1065 194 "},"1":{"ha":774,"x_min":69,"x_max":676,"o":"m 676 24 l 676 710 q 615 856 676 796 q 469 917 554 917 l 106 917 q 69 879 69 917 l 69 799 q 106 761 69 761 l 469 761 q 506 746 490 761 q 521 710 521 731 l 521 24 q 557 -12 521 -12 l 639 -12 q 676 24 676 -12 "},"2":{"ha":1274,"x_min":75,"x_max":1197,"o":"m 1197 24 l 1197 106 q 1161 142 1197 142 l 282 142 q 246 157 261 142 q 231 194 231 172 l 231 324 q 246 361 231 346 q 282 376 261 376 l 992 376 q 1137 437 1076 376 q 1197 582 1197 497 l 1197 710 q 1137 856 1197 796 q 992 917 1076 917 l 113 917 q 75 879 75 917 l 75 799 q 113 761 75 761 l 992 761 q 1028 746 1013 761 q 1043 710 1043 731 l 1043 582 q 1028 546 1043 561 q 992 531 1013 531 l 282 531 q 135 470 196 531 q 75 324 75 410 l 75 194 q 135 48 75 108 q 282 -12 196 -12 l 1161 -12 q 1197 24 1197 -12 "},"3":{"ha":1314,"x_min":96,"x_max":1217,"o":"m 1217 197 l 1217 324 q 1182 439 1217 386 q 1182 468 1172 453 q 1217 582 1217 519 l 1217 710 q 1156 856 1217 796 q 1011 917 1096 917 l 133 917 q 96 879 96 917 l 96 799 q 133 761 96 761 l 1011 761 q 1047 746 1032 761 q 1063 710 1063 731 l 1063 582 q 1047 546 1063 561 q 1011 531 1032 531 l 325 531 q 289 494 289 531 l 289 413 q 325 376 289 376 l 1011 376 q 1047 361 1032 376 q 1063 324 1063 346 l 1063 197 q 1047 160 1063 175 q 1011 144 1032 144 l 133 144 q 96 108 96 144 l 96 26 q 133 -10 96 -10 l 1011 -10 q 1156 51 1096 -10 q 1217 197 1217 111 "},"4":{"ha":1294,"x_min":69,"x_max":1225,"o":"m 1225 218 l 1225 299 q 1189 336 1225 336 l 990 336 q 972 354 972 336 l 972 814 q 936 850 972 850 l 854 850 q 817 814 817 850 l 817 354 q 799 336 817 336 l 250 336 q 242 340 244 336 q 243 351 239 346 l 600 874 q 603 883 603 878 q 583 903 603 903 l 469 903 q 413 874 433 903 l 94 408 q 69 326 69 371 q 86 258 69 290 q 215 181 126 181 l 799 181 q 817 163 817 181 l 817 22 q 854 -14 817 -14 l 936 -14 q 972 22 972 -14 l 972 163 q 990 181 972 181 l 1189 181 q 1225 218 1225 181 "},"5":{"ha":1269,"x_min":74,"x_max":1196,"o":"m 1196 194 l 1196 324 q 1135 470 1196 410 q 989 531 1075 531 l 279 531 q 243 546 258 531 q 228 582 228 561 l 228 710 q 243 746 228 731 q 279 761 258 761 l 1160 761 q 1196 799 1196 761 l 1196 879 q 1160 917 1196 917 l 279 917 q 134 856 194 917 q 74 710 74 796 l 74 582 q 134 437 74 497 q 279 376 194 376 l 989 376 q 1026 361 1011 376 q 1040 324 1040 346 l 1040 194 q 1026 157 1040 172 q 989 142 1011 142 l 110 142 q 74 106 74 142 l 74 24 q 110 -12 74 -12 l 989 -12 q 1135 48 1075 -12 q 1196 194 1196 108 "},"6":{"ha":1267,"x_min":74,"x_max":1194,"o":"m 1194 194 l 1194 321 q 1134 467 1194 407 q 988 528 1074 528 l 246 528 q 228 546 228 528 l 228 710 q 243 746 228 731 q 279 761 258 761 l 1157 761 q 1194 799 1194 761 l 1194 879 q 1157 917 1194 917 l 279 917 q 134 856 194 917 q 74 710 74 796 l 74 194 q 134 48 74 108 q 279 -12 194 -12 l 988 -12 q 1134 48 1074 -12 q 1194 194 1194 108 m 1039 194 q 1024 157 1039 172 q 988 142 1008 142 l 279 142 q 243 157 258 142 q 228 194 228 172 l 228 354 q 246 374 228 374 l 988 374 q 1024 358 1008 374 q 1039 321 1039 343 l 1039 194 "},"7":{"ha":1147,"x_min":69,"x_max":1065,"o":"m 1049 689 q 1065 760 1065 722 q 1042 842 1065 804 q 908 917 996 917 l 106 917 q 69 879 69 917 l 69 799 q 106 761 69 761 l 886 761 q 899 754 894 761 q 901 740 904 747 l 542 17 q 539 7 539 13 q 561 -15 539 -15 l 661 -15 q 714 17 697 -15 l 1049 689 "},"8":{"ha":1315,"x_min":96,"x_max":1218,"o":"m 1218 194 l 1218 324 q 1183 439 1218 386 q 1183 468 1174 453 q 1218 582 1218 519 l 1218 710 q 1158 856 1218 796 q 1013 917 1097 917 l 303 917 q 157 856 218 917 q 96 710 96 796 l 96 582 q 131 468 96 519 q 131 439 142 453 q 96 324 96 386 l 96 194 q 157 48 96 108 q 303 -12 218 -12 l 1013 -12 q 1158 48 1097 -12 q 1218 194 1218 108 m 1064 582 q 1049 546 1064 561 q 1013 531 1033 531 l 303 531 q 267 546 282 531 q 251 582 251 561 l 251 710 q 267 746 251 731 q 303 761 282 761 l 1013 761 q 1049 746 1033 761 q 1064 710 1064 731 l 1064 582 m 1064 194 q 1049 157 1064 172 q 1013 142 1033 142 l 303 142 q 267 157 282 142 q 251 194 251 172 l 251 324 q 267 361 251 346 q 303 376 282 376 l 1013 376 q 1049 361 1033 376 q 1064 324 1064 346 l 1064 194 "},"9":{"ha":1315,"x_min":97,"x_max":1218,"o":"m 1218 194 l 1218 710 q 1158 856 1218 796 q 1013 917 1097 917 l 304 917 q 158 856 218 917 q 97 710 97 796 l 97 582 q 158 437 97 497 q 304 376 218 376 l 1046 376 q 1064 357 1064 376 l 1064 194 q 1049 157 1064 172 q 1013 142 1033 142 l 176 142 q 140 106 140 142 l 140 24 q 176 -12 140 -12 l 1013 -12 q 1158 48 1097 -12 q 1218 194 1218 108 m 1064 549 q 1046 531 1064 531 l 304 531 q 268 546 283 531 q 253 582 253 561 l 253 710 q 268 746 253 731 q 304 761 283 761 l 1013 761 q 1049 746 1033 761 q 1064 710 1064 731 l 1064 549 "}," ":{"ha":694,"x_min":0,"x_max":0,"o":""},"!":{"ha":349,"x_min":97,"x_max":251,"o":"m 251 282 l 251 879 q 215 917 251 917 l 133 917 q 97 879 97 917 l 97 282 q 133 246 97 246 l 215 246 q 251 282 251 246 m 251 24 l 251 139 q 215 176 251 176 l 133 176 q 97 139 97 176 l 97 24 q 133 -12 97 -12 l 215 -12 q 251 24 251 -12 "},"\"":{"ha":582,"x_min":97,"x_max":485,"o":"m 485 604 l 485 879 q 447 917 485 917 l 365 917 q 329 879 329 917 l 329 604 q 365 568 329 568 l 447 568 q 485 604 485 568 m 251 604 l 251 879 q 215 917 251 917 l 133 917 q 97 879 97 917 l 97 604 q 133 568 97 568 l 215 568 q 251 604 251 568 "},"#":{"ha":1232,"x_min":88,"x_max":1144,"o":"m 1144 153 l 1144 235 q 1108 271 1144 271 l 969 271 q 951 289 951 271 l 951 614 q 969 632 951 632 l 1108 632 q 1144 669 1144 632 l 1144 750 q 1108 788 1144 788 l 969 788 q 951 806 951 788 l 951 879 q 915 917 951 917 l 833 917 q 797 879 797 917 l 797 806 q 778 788 797 788 l 454 788 q 436 806 436 788 l 436 879 q 399 917 436 917 l 317 917 q 281 879 281 917 l 281 806 q 263 788 281 788 l 124 788 q 88 750 88 788 l 88 669 q 124 632 88 632 l 263 632 q 281 614 281 632 l 281 289 q 263 271 281 271 l 124 271 q 88 235 88 271 l 88 153 q 124 117 88 117 l 263 117 q 281 99 281 117 l 281 24 q 317 -12 281 -12 l 399 -12 q 436 24 436 -12 l 436 99 q 454 117 436 117 l 778 117 q 797 99 797 117 l 797 24 q 833 -12 797 -12 l 915 -12 q 951 24 951 -12 l 951 99 q 969 117 951 117 l 1108 117 q 1144 153 1144 117 m 797 289 q 778 271 797 271 l 454 271 q 436 289 436 271 l 436 614 q 454 632 436 632 l 778 632 q 797 614 797 632 l 797 289 "},"$":{"ha":1299,"x_min":88,"x_max":1210,"o":"m 1210 211 l 1210 307 q 1144 465 1210 400 q 986 531 1079 531 l 778 531 q 758 549 758 531 l 758 743 q 778 761 758 761 l 1174 761 q 1210 799 1210 761 l 1210 879 q 1174 917 1210 917 l 311 917 q 153 851 219 917 q 88 693 88 785 l 88 600 q 153 442 88 507 q 311 376 219 376 l 586 376 q 604 357 604 376 l 604 161 q 586 142 604 142 l 125 142 q 88 106 88 142 l 88 24 q 125 -12 88 -12 l 586 -12 q 604 -31 604 -12 l 604 -40 q 640 -78 604 -78 l 722 -78 q 758 -40 758 -78 l 758 -31 q 778 -12 758 -12 l 986 -12 q 1144 53 1079 -12 q 1210 211 1210 118 m 1056 211 q 1035 162 1056 182 q 986 142 1015 142 l 778 142 q 758 161 758 142 l 758 357 q 778 376 758 376 l 986 376 q 1035 356 1015 376 q 1056 307 1056 336 l 1056 211 m 604 549 q 586 531 604 531 l 311 531 q 263 551 283 531 q 243 600 243 571 l 243 693 q 263 741 243 721 q 311 761 283 761 l 586 761 q 604 743 604 761 l 604 549 "},"%":{"ha":1315,"x_min":50,"x_max":1265,"o":"m 1182 138 l 1182 283 q 1138 389 1182 344 q 1032 433 1093 433 l 886 433 q 780 389 824 433 q 736 283 736 344 l 736 138 q 780 31 736 75 q 886 -12 824 -12 l 1032 -12 q 1138 31 1093 -12 q 1182 138 1182 75 m 1028 161 q 1008 142 1028 142 l 910 142 q 890 161 890 142 l 890 260 q 910 279 890 279 l 1008 279 q 1028 260 1028 279 l 1028 161 m 1260 875 q 1265 888 1265 881 q 1249 904 1265 904 l 1092 904 q 1032 882 1058 904 l 57 29 q 50 17 50 25 q 67 0 50 0 l 224 0 q 283 22 258 0 l 1260 875 m 581 611 l 581 756 q 536 862 581 818 q 429 906 492 906 l 285 906 q 178 862 222 906 q 135 756 135 818 l 135 611 q 178 504 135 549 q 285 460 222 460 l 429 460 q 536 504 492 460 q 581 611 581 549 m 425 633 q 407 615 425 615 l 307 615 q 289 633 289 615 l 289 733 q 307 751 289 751 l 407 751 q 425 733 425 751 l 425 633 "},"&":{"ha":1461,"x_min":78,"x_max":1390,"o":"m 1383 425 q 1386 443 1390 433 q 1371 453 1381 453 l 1240 453 q 1179 425 1203 453 l 1143 383 q 1121 383 1132 369 l 1113 394 q 985 499 1063 463 q 974 524 968 507 q 982 581 982 551 l 982 710 q 922 856 982 796 q 775 917 861 917 l 354 917 q 208 856 268 917 q 147 710 147 796 l 147 581 q 160 511 147 544 q 153 482 167 494 q 78 324 78 421 l 78 194 q 138 48 78 108 q 285 -12 199 -12 l 844 -12 q 1110 106 1004 -12 q 1133 104 1122 119 l 1188 29 q 1246 0 1210 0 l 1364 0 q 1381 11 1376 0 q 1379 29 1386 21 l 1236 225 q 1238 254 1225 240 l 1383 425 m 826 581 q 813 546 826 561 q 779 531 799 531 l 350 531 q 317 546 331 531 q 303 581 303 561 l 303 710 q 317 746 303 731 q 354 761 332 761 l 775 761 q 812 746 797 761 q 826 710 826 731 l 826 581 m 1018 263 q 1017 233 1028 247 l 999 213 q 844 142 938 142 l 285 142 q 248 157 263 142 q 233 194 233 172 l 233 324 q 248 361 233 346 q 285 376 263 376 l 844 376 q 988 303 935 376 l 1018 263 "},"'":{"ha":350,"x_min":97,"x_max":253,"o":"m 253 540 l 253 879 q 215 917 253 917 l 133 917 q 97 879 97 917 l 97 540 q 133 503 97 503 l 215 503 q 253 540 253 503 "},"(":{"ha":433,"x_min":64,"x_max":369,"o":"m 367 15 l 357 28 q 218 453 218 218 q 357 879 218 689 l 364 888 q 367 899 367 892 q 349 918 367 918 l 233 918 q 178 886 196 918 q 64 453 64 685 q 181 17 64 218 q 236 -15 199 -15 l 350 -15 q 369 4 369 -15 q 367 15 369 11 "},")":{"ha":489,"x_min":92,"x_max":397,"o":"m 397 453 q 283 886 397 685 q 228 918 265 918 l 113 918 q 94 899 94 918 q 97 888 94 892 l 104 879 q 243 453 243 689 q 104 28 243 218 l 94 15 q 92 4 92 11 q 111 -15 92 -15 l 225 -15 q 281 17 263 -15 q 397 453 397 218 "},"*":{"ha":1019,"x_min":72,"x_max":947,"o":"m 922 754 q 921 806 947 781 l 864 864 q 813 864 838 890 l 535 588 q 483 588 510 561 l 207 864 q 156 864 181 890 l 97 806 q 97 754 72 781 l 374 478 q 374 426 400 451 l 97 149 q 97 97 72 124 l 156 40 q 207 40 181 14 l 483 317 q 535 317 510 342 l 813 40 q 864 40 838 14 l 921 97 q 921 149 947 124 l 644 426 q 644 478 619 451 l 922 754 "},"+":{"ha":1204,"x_min":61,"x_max":1144,"o":"m 1144 411 l 1144 493 q 1107 529 1144 529 l 699 529 q 679 547 679 529 l 679 879 q 643 917 679 917 l 561 917 q 525 879 525 917 l 525 547 q 507 529 525 529 l 97 529 q 61 493 61 529 l 61 411 q 97 375 61 375 l 507 375 q 525 356 525 375 l 525 24 q 561 -12 525 -12 l 643 -12 q 679 24 679 -12 l 679 356 q 699 375 679 375 l 1107 375 q 1144 411 1144 375 "},",":{"ha":436,"x_min":79,"x_max":331,"o":"m 331 64 l 331 104 q 294 142 331 142 l 213 142 q 176 104 176 142 l 176 64 q 153 8 176 32 l 106 -39 q 106 -92 79 -65 l 163 -149 q 189 -160 174 -160 q 215 -149 204 -160 l 263 -101 q 331 64 331 -33 "},"-":{"ha":1285,"x_min":101,"x_max":1185,"o":"m 1185 411 l 1185 493 q 1147 529 1185 529 l 138 529 q 101 493 101 529 l 101 411 q 138 375 101 375 l 1147 375 q 1185 411 1185 375 "},"‐":{"ha":1285,"x_min":101,"x_max":1185,"o":"m 1185 411 q 1147 375 1185 375 l 138 375 q 101 411 101 375 l 101 493 q 138 529 101 529 l 1147 529 q 1185 493 1185 529 l 1185 411 "},".":{"ha":350,"x_min":97,"x_max":253,"o":"m 253 28 l 253 121 q 215 157 253 157 l 133 157 q 97 121 97 157 l 97 28 q 133 -8 97 -8 l 215 -8 q 253 28 253 -8 "},"/":{"ha":1253,"x_min":19,"x_max":1233,"o":"m 1228 875 q 1233 888 1233 881 q 1217 904 1233 904 l 1061 904 q 1001 882 1026 904 l 25 29 q 19 17 19 25 q 36 0 19 0 l 193 0 q 253 22 226 0 l 1228 875 "},":":{"ha":349,"x_min":97,"x_max":251,"o":"m 251 540 l 251 686 q 215 722 251 722 l 133 722 q 97 686 97 722 l 97 540 q 133 503 97 503 l 215 503 q 251 540 251 503 m 251 218 l 251 364 q 215 400 251 400 l 133 400 q 97 364 97 400 l 97 218 q 133 181 97 181 l 215 181 q 251 218 251 181 "},";":{"ha":435,"x_min":79,"x_max":331,"o":"m 331 540 l 331 686 q 293 722 331 722 l 213 722 q 175 686 175 722 l 175 540 q 213 503 175 503 l 293 503 q 331 540 331 503 m 331 322 l 331 364 q 293 400 331 400 l 213 400 q 175 364 175 400 l 175 322 q 153 268 175 290 l 104 219 q 104 168 79 194 l 163 110 q 189 100 174 100 q 214 110 203 100 l 263 158 q 331 322 331 226 "},"<":{"ha":981,"x_min":43,"x_max":936,"o":"m 929 28 l 217 444 q 217 464 200 454 l 924 876 q 931 889 931 881 q 917 903 931 903 l 688 903 q 642 890 663 903 l 119 586 q 43 454 43 542 q 119 322 43 367 l 649 13 q 694 0 669 0 l 922 0 q 936 15 936 0 q 929 28 936 24 "},"=":{"ha":1151,"x_min":79,"x_max":1072,"o":"m 1072 540 l 1072 622 q 1036 658 1072 658 l 115 658 q 79 622 79 658 l 79 540 q 115 503 79 503 l 1036 503 q 1072 540 1072 503 m 1072 282 l 1072 364 q 1036 400 1072 400 l 115 400 q 79 364 79 400 l 79 282 q 115 246 79 246 l 1036 246 q 1072 282 1072 246 "},">":{"ha":1054,"x_min":81,"x_max":974,"o":"m 974 454 q 897 586 974 542 l 375 890 q 329 903 354 903 l 100 903 q 86 889 86 903 q 93 876 86 881 l 801 464 q 801 444 817 454 l 88 28 q 81 15 81 24 q 94 0 81 0 l 322 0 q 369 13 347 0 l 897 322 q 974 454 974 367 "},"?":{"ha":1275,"x_min":76,"x_max":1199,"o":"m 1199 646 l 1199 710 q 1138 856 1199 796 q 992 917 1078 917 l 283 917 q 137 856 197 917 q 76 710 76 796 l 76 475 q 113 439 76 439 l 194 439 q 231 475 231 439 l 231 710 q 246 746 231 731 q 283 761 261 761 l 992 761 q 1029 746 1014 761 q 1044 710 1044 731 l 1044 646 q 972 536 1044 568 l 694 418 q 617 353 646 397 q 588 257 588 310 l 588 217 q 624 179 588 179 l 706 179 q 742 217 742 179 l 742 257 q 754 275 742 271 l 1033 394 q 1153 495 1108 426 q 1199 646 1199 564 m 742 24 l 742 82 q 706 118 742 118 l 624 118 q 588 82 588 118 l 588 24 q 624 -12 588 -12 l 706 -12 q 742 24 742 -12 "},"@":{"ha":1318,"x_min":97,"x_max":1219,"o":"m 1219 194 l 1219 710 q 1159 856 1219 796 q 1014 917 1099 917 l 304 917 q 158 856 218 917 q 97 710 97 796 l 97 194 q 158 48 97 108 q 304 -12 218 -12 l 1014 -12 q 1159 48 1099 -12 q 1219 194 1219 108 m 1065 194 q 1050 157 1065 172 q 1014 142 1035 142 l 696 142 q 678 161 678 142 l 678 401 q 692 438 678 422 q 729 453 707 453 l 1047 453 q 1065 435 1065 453 l 1065 194 m 1065 625 q 1047 607 1065 607 l 729 607 q 583 547 643 607 q 522 401 522 486 l 522 161 q 504 142 522 142 l 304 142 q 268 157 283 142 q 253 194 253 172 l 253 710 q 268 746 253 731 q 304 761 283 761 l 1014 761 q 1050 746 1035 761 q 1065 710 1065 731 l 1065 625 "},"A":{"ha":1318,"x_min":99,"x_max":1221,"o":"m 1221 24 l 1221 693 q 1155 851 1221 785 q 997 917 1089 917 l 322 917 q 164 851 229 917 q 99 693 99 785 l 99 24 q 135 -12 99 -12 l 217 -12 q 253 24 253 -12 l 253 357 q 271 376 253 376 l 1047 376 q 1065 357 1065 376 l 1065 24 q 1101 -12 1065 -12 l 1183 -12 q 1221 24 1221 -12 m 1065 549 q 1047 531 1065 531 l 271 531 q 253 549 253 531 l 253 693 q 273 741 253 721 q 322 761 293 761 l 997 761 q 1045 741 1025 761 q 1065 693 1065 721 l 1065 549 "},"B":{"ha":1313,"x_min":94,"x_max":1217,"o":"m 1217 211 l 1217 307 q 1172 439 1217 379 q 1172 468 1163 453 q 1217 600 1217 526 l 1217 693 q 1151 851 1217 785 q 993 917 1086 917 l 132 917 q 94 879 94 917 l 94 24 q 132 -12 94 -12 l 993 -12 q 1151 53 1086 -12 q 1217 211 1217 118 m 1063 600 q 1042 551 1063 571 q 993 531 1022 531 l 268 531 q 250 549 250 531 l 250 743 q 268 761 250 761 l 993 761 q 1042 741 1022 761 q 1063 693 1063 721 l 1063 600 m 1063 211 q 1042 162 1063 182 q 993 142 1022 142 l 268 142 q 250 161 250 142 l 250 357 q 268 376 250 376 l 993 376 q 1042 356 1022 376 q 1063 307 1063 336 l 1063 211 "},"C":{"ha":1267,"x_min":83,"x_max":1206,"o":"m 1206 24 l 1206 106 q 1169 142 1206 142 l 307 142 q 258 162 279 142 q 238 211 238 182 l 238 693 q 258 741 238 721 q 307 761 279 761 l 1169 761 q 1206 799 1206 761 l 1206 879 q 1169 917 1206 917 l 307 917 q 149 851 214 917 q 83 693 83 785 l 83 211 q 149 53 83 118 q 307 -12 214 -12 l 1169 -12 q 1206 24 1206 -12 "},"D":{"ha":1310,"x_min":97,"x_max":1219,"o":"m 1219 211 l 1219 693 q 1154 851 1219 785 q 996 917 1089 917 l 135 917 q 97 879 97 917 l 97 24 q 135 -12 97 -12 l 996 -12 q 1154 53 1089 -12 q 1219 211 1219 118 m 1065 211 q 1045 162 1065 182 q 996 142 1025 142 l 271 142 q 253 161 253 142 l 253 743 q 271 761 253 761 l 996 761 q 1045 741 1025 761 q 1065 693 1065 721 l 1065 211 "},"E":{"ha":1289,"x_min":83,"x_max":1206,"o":"m 1206 24 l 1206 106 q 1169 142 1206 142 l 307 142 q 258 162 279 142 q 238 211 238 182 l 238 356 q 257 375 238 375 l 1140 375 q 1176 411 1176 375 l 1176 493 q 1140 529 1176 529 l 257 529 q 238 547 238 529 l 238 693 q 258 741 238 721 q 307 761 279 761 l 1169 761 q 1206 799 1206 761 l 1206 879 q 1169 917 1206 917 l 307 917 q 149 851 214 917 q 83 693 83 785 l 83 211 q 149 53 83 118 q 307 -12 214 -12 l 1169 -12 q 1206 24 1206 -12 "},"F":{"ha":1242,"x_min":83,"x_max":1206,"o":"m 1206 799 l 1206 879 q 1169 917 1206 917 l 307 917 q 149 851 214 917 q 83 693 83 785 l 83 24 q 119 -12 83 -12 l 201 -12 q 238 24 238 -12 l 238 356 q 257 375 238 375 l 1140 375 q 1176 411 1176 375 l 1176 493 q 1140 529 1176 529 l 257 529 q 238 547 238 529 l 238 693 q 258 741 238 721 q 307 761 279 761 l 1169 761 q 1206 799 1206 761 "},"G":{"ha":1269,"x_min":74,"x_max":1196,"o":"m 1196 211 l 1196 307 q 1131 465 1196 400 q 972 531 1065 531 l 561 531 q 525 494 525 531 l 525 413 q 561 376 525 376 l 972 376 q 1021 356 1000 376 q 1042 307 1042 336 l 1042 211 q 1021 162 1042 182 q 972 142 1000 142 l 297 142 q 248 162 268 142 q 228 211 228 182 l 228 693 q 248 741 228 721 q 297 761 268 761 l 1160 761 q 1196 799 1196 761 l 1196 879 q 1160 917 1196 917 l 297 917 q 139 851 204 917 q 74 693 74 785 l 74 211 q 139 53 74 118 q 297 -12 204 -12 l 972 -12 q 1131 53 1065 -12 q 1196 211 1196 118 "},"H":{"ha":1318,"x_min":97,"x_max":1219,"o":"m 1219 24 l 1219 879 q 1183 917 1219 917 l 1101 917 q 1065 879 1065 917 l 1065 547 q 1047 529 1065 529 l 271 529 q 253 547 253 529 l 253 879 q 215 917 253 917 l 135 917 q 97 879 97 917 l 97 24 q 135 -12 97 -12 l 215 -12 q 253 24 253 -12 l 253 356 q 271 375 253 375 l 1047 375 q 1065 356 1065 375 l 1065 24 q 1101 -12 1065 -12 l 1183 -12 q 1219 24 1219 -12 "},"I":{"ha":350,"x_min":97,"x_max":253,"o":"m 253 22 l 253 879 q 215 917 253 917 l 135 917 q 97 879 97 917 l 97 22 q 135 -14 97 -14 l 215 -14 q 253 22 253 -14 "},"J":{"ha":943,"x_min":53,"x_max":846,"o":"m 846 210 l 846 879 q 810 917 846 917 l 728 917 q 692 879 692 917 l 692 210 q 672 160 692 181 q 622 140 651 140 l 89 140 q 53 104 53 140 l 53 22 q 89 -14 53 -14 l 622 -14 q 781 51 715 -14 q 846 210 846 117 "},"K":{"ha":1206,"x_min":90,"x_max":1178,"o":"m 1163 850 q 1178 875 1178 858 q 1149 904 1178 904 l 983 904 q 897 883 938 904 l 353 592 q 271 453 271 547 q 353 315 271 360 l 888 22 q 975 0 929 0 l 1138 0 q 1167 31 1167 0 q 1151 56 1167 47 l 457 435 q 446 453 446 440 q 457 471 446 465 l 1163 850 m 244 24 l 244 879 q 208 917 244 917 l 126 917 q 90 879 90 917 l 90 24 q 126 -12 90 -12 l 208 -12 q 244 24 244 -12 "},"L":{"ha":1115,"x_min":90,"x_max":1083,"o":"m 1083 24 l 1083 106 q 1047 142 1083 142 l 314 142 q 265 162 286 142 q 244 211 244 182 l 244 879 q 208 917 244 917 l 126 917 q 90 879 90 917 l 90 211 q 156 53 90 118 q 314 -12 221 -12 l 1047 -12 q 1083 24 1083 -12 "},"M":{"ha":1464,"x_min":99,"x_max":1367,"o":"m 1367 24 l 1367 693 q 1301 851 1367 785 q 1143 917 1235 917 l 322 917 q 164 851 229 917 q 99 693 99 785 l 99 24 q 135 -12 99 -12 l 217 -12 q 253 24 253 -12 l 253 693 q 273 741 253 721 q 322 761 293 761 l 636 761 q 656 743 656 761 l 656 24 q 692 -12 656 -12 l 774 -12 q 810 24 810 -12 l 810 743 q 828 761 810 761 l 1143 761 q 1191 741 1171 761 q 1211 693 1211 721 l 1211 24 q 1249 -12 1211 -12 l 1331 -12 q 1367 24 1367 -12 "},"N":{"ha":1253,"x_min":97,"x_max":1156,"o":"m 1156 126 l 1156 879 q 1118 917 1156 917 l 1038 917 q 1000 879 1000 917 l 1000 154 q 996 147 1000 149 q 988 149 990 146 l 364 876 q 250 929 319 929 q 196 919 222 929 q 97 778 97 883 l 97 24 q 133 -12 97 -12 l 215 -12 q 253 24 253 -12 l 253 750 q 257 757 253 754 q 265 754 261 758 l 888 28 q 1003 -26 933 -26 q 1056 -17 1031 -26 q 1156 126 1156 21 "},"O":{"ha":1289,"x_min":83,"x_max":1206,"o":"m 1206 211 l 1206 693 q 1140 851 1206 785 q 982 917 1075 917 l 307 917 q 149 851 214 917 q 83 693 83 785 l 83 211 q 149 53 83 118 q 307 -12 214 -12 l 982 -12 q 1140 53 1075 -12 q 1206 211 1206 118 m 1051 211 q 1031 162 1051 182 q 982 142 1011 142 l 307 142 q 258 162 279 142 q 238 211 238 182 l 238 693 q 258 741 238 721 q 307 761 279 761 l 982 761 q 1031 741 1011 761 q 1051 693 1051 721 l 1051 211 "},"P":{"ha":1268,"x_min":90,"x_max":1213,"o":"m 1213 600 l 1213 693 q 1147 851 1213 785 q 989 917 1082 917 l 314 917 q 156 851 221 917 q 90 693 90 785 l 90 24 q 126 -12 90 -12 l 208 -12 q 244 24 244 -12 l 244 357 q 264 376 244 376 l 989 376 q 1147 442 1082 376 q 1213 600 1213 507 m 1058 600 q 1038 551 1058 571 q 989 531 1018 531 l 264 531 q 244 549 244 531 l 244 693 q 265 741 244 721 q 314 761 286 761 l 989 761 q 1038 741 1018 761 q 1058 693 1058 721 l 1058 600 "},"Q":{"ha":1303,"x_min":90,"x_max":1213,"o":"m 1213 211 l 1213 693 q 1147 851 1213 785 q 989 917 1082 917 l 314 917 q 156 851 221 917 q 90 693 90 785 l 90 211 q 156 53 90 118 q 314 -12 221 -12 l 588 -12 q 607 -31 607 -12 l 607 -92 q 643 -129 607 -129 l 725 -129 q 761 -92 761 -129 l 761 -31 q 779 -12 761 -12 l 989 -12 q 1147 53 1082 -12 q 1213 211 1213 118 m 1058 211 q 1038 162 1058 182 q 989 142 1018 142 l 779 142 q 761 161 761 142 l 761 203 q 725 239 761 239 l 643 239 q 607 203 607 239 l 607 161 q 588 142 607 142 l 314 142 q 265 162 286 142 q 244 211 244 182 l 244 693 q 265 741 244 721 q 314 761 286 761 l 989 761 q 1038 741 1018 761 q 1058 693 1058 721 l 1058 211 "},"R":{"ha":1282,"x_min":90,"x_max":1213,"o":"m 376 331 l 375 332 l 381 329 l 376 331 m 1213 600 l 1213 693 q 1147 851 1213 785 q 989 917 1082 917 l 314 917 q 156 851 221 917 q 90 693 90 785 l 90 24 q 126 -12 90 -12 l 208 -12 q 244 24 244 -12 l 244 693 q 265 741 244 721 q 314 761 286 761 l 989 761 q 1038 741 1018 761 q 1058 693 1058 721 l 1058 600 q 1038 551 1058 571 q 989 531 1018 531 l 429 531 q 353 499 385 531 q 322 425 322 468 q 376 331 322 365 l 888 14 q 935 0 910 0 l 1151 0 q 1165 11 1163 0 q 1160 28 1169 22 l 619 363 q 617 371 615 365 q 624 376 618 376 l 989 376 q 1147 442 1082 376 q 1213 600 1213 507 "},"S":{"ha":1269,"x_min":74,"x_max":1196,"o":"m 1196 211 l 1196 307 q 1131 465 1196 400 q 972 531 1065 531 l 297 531 q 249 551 269 531 q 228 600 228 571 l 228 693 q 249 741 228 721 q 297 761 269 761 l 1160 761 q 1196 799 1196 761 l 1196 879 q 1160 917 1196 917 l 297 917 q 139 851 204 917 q 74 693 74 785 l 74 600 q 139 442 74 507 q 297 376 204 376 l 972 376 q 1021 356 1000 376 q 1042 307 1042 336 l 1042 211 q 1021 162 1042 182 q 972 142 1000 142 l 110 142 q 74 106 74 142 l 74 24 q 110 -12 74 -12 l 972 -12 q 1131 53 1065 -12 q 1196 211 1196 118 "},"T":{"ha":1206,"x_min":42,"x_max":1164,"o":"m 1164 799 l 1164 879 q 1128 917 1164 917 l 78 917 q 42 879 42 917 l 42 799 q 78 761 42 761 l 539 761 q 558 743 558 761 l 558 24 q 594 -12 558 -12 l 676 -12 q 713 24 713 -12 l 713 743 q 731 761 713 761 l 1128 761 q 1164 799 1164 761 "},"U":{"ha":1317,"x_min":97,"x_max":1219,"o":"m 1219 211 l 1219 879 q 1183 917 1219 917 l 1101 917 q 1064 879 1064 917 l 1064 211 q 1044 162 1064 182 q 996 142 1024 142 l 321 142 q 272 162 292 142 q 251 211 251 182 l 251 879 q 215 917 251 917 l 133 917 q 97 879 97 917 l 97 211 q 163 53 97 118 q 321 -12 228 -12 l 996 -12 q 1153 53 1088 -12 q 1219 211 1219 118 "},"V":{"ha":1219,"x_min":49,"x_max":1171,"o":"m 1171 601 l 1171 879 q 1135 917 1171 917 l 1053 917 q 1017 879 1017 917 l 1017 601 q 935 411 1017 489 l 664 157 q 610 136 640 136 q 556 157 579 136 l 286 411 q 203 601 203 489 l 203 879 q 167 917 203 917 l 85 917 q 49 879 49 917 l 49 601 q 179 299 49 421 l 450 44 q 610 -19 517 -19 q 769 44 703 -19 l 1040 299 q 1171 601 1171 421 "},"W":{"ha":1510,"x_min":97,"x_max":1413,"o":"m 1413 211 l 1413 879 q 1376 917 1413 917 l 1294 917 q 1258 879 1258 917 l 1258 211 q 1238 162 1258 182 q 1189 142 1218 142 l 850 142 q 832 161 832 142 l 832 879 q 796 917 832 917 l 714 917 q 678 879 678 917 l 678 161 q 660 142 678 142 l 321 142 q 272 162 292 142 q 251 211 251 182 l 251 879 q 215 917 251 917 l 133 917 q 97 879 97 917 l 97 211 q 163 53 97 118 q 321 -12 228 -12 l 1189 -12 q 1347 53 1282 -12 q 1413 211 1413 118 "},"X":{"ha":1274,"x_min":47,"x_max":1226,"o":"m 1218 890 q 1222 907 1226 897 q 1207 918 1218 918 l 1058 918 q 996 893 1022 918 l 651 565 q 625 565 638 553 l 278 893 q 215 918 251 918 l 67 918 q 51 907 56 918 q 56 890 47 897 l 513 458 q 518 446 518 453 q 513 433 518 439 l 63 10 q 60 -6 56 3 q 72 -15 63 -15 l 225 -15 q 288 10 261 -15 l 625 326 q 651 326 638 339 l 988 10 q 1050 -15 1014 -15 l 1201 -15 q 1215 -7 1213 -15 q 1213 10 1219 3 l 764 433 q 764 458 751 446 l 1218 890 "},"Y":{"ha":1364,"x_min":28,"x_max":1336,"o":"m 1329 885 q 1336 899 1336 890 q 1318 918 1336 918 l 1157 918 q 1100 897 1125 918 l 696 565 q 668 565 682 553 l 264 897 q 207 918 239 918 l 46 918 q 28 900 28 918 q 35 886 28 892 l 590 428 q 604 399 604 417 l 604 24 q 642 -12 604 -12 l 722 -12 q 760 24 760 -12 l 760 399 q 774 428 760 417 l 1329 885 "},"Z":{"ha":1265,"x_min":71,"x_max":1193,"o":"m 1193 24 l 1193 106 q 1157 142 1193 142 l 313 142 q 306 147 307 142 q 308 156 304 153 l 1115 665 q 1179 779 1179 706 q 1140 876 1179 836 q 1043 917 1100 917 l 108 917 q 71 879 71 917 l 71 799 q 108 761 71 761 l 953 761 q 960 756 958 761 q 956 747 961 751 l 149 239 q 86 124 86 199 q 126 28 86 68 q 222 -12 165 -12 l 1157 -12 q 1193 24 1193 -12 "},"[":{"ha":632,"x_min":78,"x_max":554,"o":"m 554 24 l 554 106 q 518 142 554 142 l 283 142 q 247 157 263 142 q 232 194 232 172 l 232 710 q 247 746 232 731 q 283 761 263 761 l 518 761 q 554 799 554 761 l 554 879 q 518 917 554 917 l 283 917 q 138 856 199 917 q 78 710 78 796 l 78 194 q 138 48 78 108 q 283 -12 199 -12 l 518 -12 q 554 24 554 -12 "},"\\":{"ha":1307,"x_min":46,"x_max":1261,"o":"m 1256 29 l 279 882 q 219 904 253 904 l 63 904 q 46 888 46 904 q 51 875 46 881 l 1028 22 q 1088 0 1053 0 l 1244 0 q 1261 17 1261 0 q 1256 29 1261 25 "},"]":{"ha":672,"x_min":97,"x_max":575,"o":"m 575 194 l 575 710 q 515 856 575 796 q 368 917 454 917 l 135 917 q 97 879 97 917 l 97 799 q 135 761 97 761 l 368 761 q 405 746 390 761 q 419 710 419 731 l 419 194 q 405 157 419 172 q 368 142 390 142 l 135 142 q 97 106 97 142 l 97 24 q 135 -12 97 -12 l 368 -12 q 515 48 454 -12 q 575 194 575 108 "},"^":{"ha":628,"x_min":0,"x_max":0,"o":""},"_":{"ha":1283,"x_min":100,"x_max":1183,"o":"m 1183 22 l 1183 104 q 1147 142 1183 142 l 136 142 q 100 104 100 142 l 100 22 q 136 -14 100 -14 l 1147 -14 q 1183 22 1183 -14 "},"`":{"ha":424,"x_min":11,"x_max":413,"o":"m 386 582 q 386 633 413 608 l 146 874 q 94 874 121 900 l 38 817 q 38 764 11 790 l 278 524 q 329 524 303 499 l 386 582 "},"a":{"ha":1239,"x_min":90,"x_max":1149,"o":"m 1149 194 l 1149 517 q 1088 662 1149 601 q 942 722 1026 722 l 126 722 q 90 686 90 722 l 90 604 q 126 568 90 568 l 942 568 q 978 553 963 568 q 993 517 993 538 l 993 483 q 975 465 993 465 l 297 465 q 151 404 211 465 q 90 258 90 343 l 90 194 q 151 48 90 108 q 297 -12 211 -12 l 942 -12 q 1088 48 1026 -12 q 1149 194 1149 108 m 993 194 q 978 157 993 172 q 942 142 963 142 l 297 142 q 260 157 275 142 q 244 194 244 172 l 244 258 q 260 294 244 279 q 297 310 275 310 l 975 310 q 993 292 993 310 l 993 194 "},"b":{"ha":1239,"x_min":90,"x_max":1149,"o":"m 1149 194 l 1149 517 q 1088 662 1149 601 q 942 722 1026 722 l 264 722 q 244 740 244 722 l 244 879 q 208 917 244 917 l 126 917 q 90 879 90 917 l 90 194 q 151 48 90 108 q 297 -12 211 -12 l 942 -12 q 1088 48 1026 -12 q 1149 194 1149 108 m 993 194 q 978 157 993 172 q 942 142 963 142 l 297 142 q 260 157 275 142 q 244 194 244 172 l 244 550 q 264 568 244 568 l 942 568 q 978 553 963 568 q 993 517 993 538 l 993 194 "},"c":{"ha":1197,"x_min":90,"x_max":1149,"o":"m 1149 24 l 1149 106 q 1111 142 1149 142 l 297 142 q 260 157 275 142 q 244 194 244 172 l 244 517 q 260 553 244 538 q 297 568 275 568 l 1111 568 q 1149 604 1149 568 l 1149 686 q 1111 722 1149 722 l 297 722 q 151 662 211 722 q 90 517 90 601 l 90 194 q 151 48 90 108 q 297 -12 211 -12 l 1111 -12 q 1149 24 1149 -12 "},"d":{"ha":1246,"x_min":90,"x_max":1149,"o":"m 1149 194 l 1149 879 q 1111 917 1149 917 l 1029 917 q 993 879 993 917 l 993 740 q 975 722 993 722 l 297 722 q 151 662 211 722 q 90 517 90 601 l 90 194 q 151 48 90 108 q 297 -12 211 -12 l 942 -12 q 1088 48 1026 -12 q 1149 194 1149 108 m 993 194 q 978 157 993 172 q 942 142 963 142 l 297 142 q 260 157 275 142 q 244 194 244 172 l 244 517 q 260 553 244 538 q 297 568 275 568 l 975 568 q 993 550 993 568 l 993 194 "},"e":{"ha":1219,"x_min":85,"x_max":1143,"o":"m 1143 451 l 1143 517 q 1082 662 1143 601 q 936 722 1021 722 l 292 722 q 145 662 206 722 q 85 517 85 601 l 85 194 q 145 48 85 108 q 292 -12 206 -12 l 1072 -12 q 1108 24 1108 -12 l 1108 106 q 1072 142 1108 142 l 292 142 q 254 157 269 142 q 239 194 239 172 l 239 228 q 258 246 239 246 l 936 246 q 1082 306 1021 246 q 1143 451 1143 367 m 988 451 q 972 415 988 431 q 936 400 957 400 l 258 400 q 239 418 239 400 l 239 517 q 254 553 239 538 q 292 568 269 568 l 936 568 q 972 553 957 568 q 988 517 988 538 l 988 451 "},"f":{"ha":1143,"x_min":49,"x_max":1101,"o":"m 1101 413 l 1101 494 q 1064 531 1101 531 l 344 531 q 326 549 326 531 l 326 710 q 342 746 326 731 q 378 761 357 761 l 1064 761 q 1101 799 1101 761 l 1101 879 q 1064 917 1101 917 l 378 917 q 233 856 293 917 q 172 710 172 796 l 172 549 q 154 531 172 531 l 85 531 q 49 494 49 531 l 49 413 q 85 376 49 376 l 154 376 q 172 357 172 376 l 172 24 q 208 -12 172 -12 l 290 -12 q 326 24 326 -12 l 326 357 q 344 376 326 376 l 1064 376 q 1101 413 1101 376 "},"g":{"ha":1239,"x_min":90,"x_max":1149,"o":"m 1149 -64 l 1149 517 q 1088 662 1149 601 q 942 722 1026 722 l 297 722 q 151 662 211 722 q 90 517 90 601 l 90 194 q 151 48 90 108 q 297 -12 211 -12 l 975 -12 q 993 -31 993 -12 l 993 -64 q 978 -101 993 -86 q 942 -115 963 -115 l 163 -115 q 125 -153 125 -115 l 125 -235 q 163 -271 125 -271 l 942 -271 q 1088 -210 1026 -271 q 1149 -64 1149 -150 m 993 161 q 975 142 993 142 l 297 142 q 260 157 275 142 q 244 194 244 172 l 244 517 q 260 553 244 538 q 297 568 275 568 l 942 568 q 978 553 963 568 q 993 517 993 538 l 993 161 "},"h":{"ha":1246,"x_min":97,"x_max":1156,"o":"m 1156 24 l 1156 517 q 1095 662 1156 601 q 949 722 1035 722 l 271 722 q 253 740 253 722 l 253 879 q 215 917 253 917 l 133 917 q 97 879 97 917 l 97 24 q 133 -12 97 -12 l 215 -12 q 253 24 253 -12 l 253 550 q 271 568 253 568 l 949 568 q 985 553 971 568 q 1000 517 1000 538 l 1000 24 q 1038 -12 1000 -12 l 1118 -12 q 1156 24 1156 -12 "},"i":{"ha":351,"x_min":99,"x_max":253,"o":"m 253 811 l 253 879 q 217 917 253 917 l 135 917 q 99 879 99 917 l 99 811 q 135 774 99 774 l 217 774 q 253 811 253 774 m 253 14 l 253 686 q 217 722 253 722 l 135 722 q 99 686 99 722 l 99 14 q 135 -22 99 -22 l 217 -22 q 253 14 253 -22 "},"j":{"ha":718,"x_min":14,"x_max":621,"o":"m 621 811 l 621 879 q 583 917 621 917 l 501 917 q 465 879 465 917 l 465 811 q 501 774 465 774 l 583 774 q 621 811 621 774 m 621 -64 l 621 686 q 583 722 621 722 l 501 722 q 465 686 465 722 l 465 -64 q 450 -101 465 -86 q 414 -115 435 -115 l 50 -115 q 14 -153 14 -115 l 14 -235 q 50 -271 14 -271 l 414 -271 q 560 -210 499 -271 q 621 -64 621 -150 "},"k":{"ha":1085,"x_min":97,"x_max":1057,"o":"m 1047 13 l 350 332 q 329 364 329 342 q 351 397 329 389 l 1036 700 q 1044 714 1044 704 q 1029 728 1044 728 l 735 728 q 697 721 715 728 l 288 539 q 267 528 278 535 q 251 536 251 518 l 251 879 q 215 917 251 917 l 133 917 q 97 879 97 917 l 97 24 q 133 -12 97 -12 l 215 -12 q 251 24 251 -12 l 251 193 q 267 201 251 210 q 288 190 278 194 q 714 -8 503 86 q 751 -15 732 -15 l 1042 -15 q 1057 0 1057 -15 q 1047 13 1057 8 "},"l":{"ha":440,"x_min":86,"x_max":371,"o":"m 371 24 l 371 106 q 333 142 371 142 l 293 142 q 257 157 272 142 q 242 194 242 172 l 242 879 q 206 917 242 917 l 124 917 q 86 879 86 917 l 86 194 q 147 48 86 108 q 293 -12 208 -12 l 333 -12 q 371 24 371 -12 "},"m":{"ha":1367,"x_min":90,"x_max":1276,"o":"m 1276 24 l 1276 517 q 1216 662 1276 601 q 1071 722 1156 722 l 297 722 q 151 662 211 722 q 90 517 90 601 l 90 24 q 126 -12 90 -12 l 208 -12 q 244 24 244 -12 l 244 517 q 260 553 244 538 q 297 568 275 568 l 588 568 q 607 550 607 568 l 607 24 q 643 -12 607 -12 l 725 -12 q 761 24 761 -12 l 761 550 q 779 568 761 568 l 1071 568 q 1107 553 1092 568 q 1122 517 1122 538 l 1122 24 q 1158 -12 1122 -12 l 1240 -12 q 1276 24 1276 -12 "},"n":{"ha":1239,"x_min":90,"x_max":1149,"o":"m 1149 24 l 1149 369 q 1045 619 1149 517 q 796 722 942 722 l 297 722 q 151 662 211 722 q 90 517 90 601 l 90 24 q 126 -12 90 -12 l 208 -12 q 244 24 244 -12 l 244 517 q 260 553 244 538 q 297 568 275 568 l 796 568 q 935 510 878 568 q 993 369 993 451 l 993 24 q 1029 -12 993 -12 l 1111 -12 q 1149 24 1149 -12 "},"o":{"ha":1239,"x_min":90,"x_max":1149,"o":"m 1149 194 l 1149 517 q 1088 662 1149 601 q 942 722 1026 722 l 297 722 q 151 662 211 722 q 90 517 90 601 l 90 194 q 151 48 90 108 q 297 -12 211 -12 l 942 -12 q 1088 48 1026 -12 q 1149 194 1149 108 m 993 194 q 978 157 993 172 q 942 142 963 142 l 297 142 q 260 157 275 142 q 244 194 244 172 l 244 517 q 260 553 244 538 q 297 568 275 568 l 942 568 q 978 553 963 568 q 993 517 993 538 l 993 194 "},"p":{"ha":1246,"x_min":97,"x_max":1156,"o":"m 1156 194 l 1156 517 q 1095 662 1156 601 q 949 722 1035 722 l 304 722 q 158 662 218 722 q 97 517 97 601 l 97 -235 q 135 -271 97 -271 l 215 -271 q 253 -235 253 -271 l 253 -31 q 271 -12 253 -12 l 949 -12 q 1095 48 1035 -12 q 1156 194 1156 108 m 1000 194 q 985 157 1000 172 q 949 142 971 142 l 271 142 q 253 161 253 142 l 253 517 q 267 553 253 538 q 304 568 282 568 l 949 568 q 985 553 971 568 q 1000 517 1000 538 l 1000 194 "},"q":{"ha":1246,"x_min":90,"x_max":1149,"o":"m 1149 -235 l 1149 517 q 1088 662 1149 601 q 942 722 1026 722 l 297 722 q 151 662 211 722 q 90 517 90 601 l 90 194 q 151 48 90 108 q 297 -12 211 -12 l 975 -12 q 993 -31 993 -12 l 993 -235 q 1029 -271 993 -271 l 1111 -271 q 1149 -235 1149 -271 m 993 161 q 975 142 993 142 l 297 142 q 260 157 275 142 q 244 194 244 172 l 244 517 q 260 553 244 538 q 297 568 275 568 l 942 568 q 978 553 963 568 q 993 517 993 538 l 993 161 "},"r":{"ha":1040,"x_min":83,"x_max":1013,"o":"m 1013 604 l 1013 686 q 975 722 1013 722 l 290 722 q 144 662 204 722 q 83 517 83 601 l 83 24 q 119 -12 83 -12 l 201 -12 q 238 24 238 -12 l 238 517 q 253 553 238 538 q 290 568 268 568 l 975 568 q 1013 604 1013 568 "},"s":{"ha":1197,"x_min":69,"x_max":1128,"o":"m 1128 194 l 1128 226 q 1067 372 1128 311 q 921 432 1006 432 l 276 432 q 239 447 254 432 q 224 485 224 463 l 224 517 q 239 553 224 538 q 276 568 254 568 l 1057 568 q 1093 604 1093 568 l 1093 686 q 1057 722 1093 722 l 276 722 q 130 662 190 722 q 69 517 69 601 l 69 485 q 130 338 69 399 q 276 278 190 278 l 921 278 q 957 263 942 278 q 972 226 972 247 l 972 194 q 957 157 972 172 q 921 142 942 142 l 140 142 q 103 106 103 142 l 103 24 q 140 -12 103 -12 l 921 -12 q 1067 48 1006 -12 q 1128 194 1128 108 "},"t":{"ha":1032,"x_min":97,"x_max":1004,"o":"m 1004 24 l 1004 106 q 968 142 1004 142 l 304 142 q 267 157 282 142 q 251 194 251 172 l 251 550 q 271 568 251 568 l 967 568 q 1003 604 1003 568 l 1003 686 q 967 722 1003 722 l 271 722 q 251 740 251 722 l 251 879 q 215 917 251 917 l 133 917 q 97 879 97 917 l 97 194 q 158 48 97 108 q 304 -12 218 -12 l 968 -12 q 1004 24 1004 -12 "},"u":{"ha":1257,"x_min":100,"x_max":1157,"o":"m 1157 194 l 1157 686 q 1121 722 1157 722 l 1039 722 q 1003 686 1003 722 l 1003 194 q 988 157 1003 172 q 951 142 972 142 l 306 142 q 269 157 285 142 q 254 194 254 172 l 254 686 q 218 722 254 722 l 136 722 q 100 686 100 722 l 100 194 q 160 48 100 108 q 306 -12 221 -12 l 951 -12 q 1097 48 1036 -12 q 1157 194 1157 108 "},"v":{"ha":1225,"x_min":83,"x_max":1142,"o":"m 1142 388 l 1142 686 q 1104 722 1142 722 l 1022 722 q 986 686 986 722 l 986 388 q 918 222 986 290 l 907 211 q 742 142 838 142 l 483 142 q 318 211 386 142 l 307 222 q 238 388 238 290 l 238 686 q 201 722 238 722 l 119 722 q 83 686 83 722 l 83 388 q 197 113 83 226 l 208 101 q 483 -12 322 -12 l 742 -12 q 1017 101 903 -12 l 1028 113 q 1142 388 1142 226 "},"w":{"ha":1386,"x_min":100,"x_max":1286,"o":"m 1286 194 l 1286 686 q 1250 722 1286 722 l 1168 722 q 1132 686 1132 722 l 1132 194 q 1117 157 1132 172 q 1081 142 1101 142 l 789 142 q 771 161 771 142 l 771 686 q 733 722 771 722 l 653 722 q 615 686 615 722 l 615 161 q 597 142 615 142 l 306 142 q 269 157 285 142 q 254 194 254 172 l 254 686 q 218 722 254 722 l 136 722 q 100 686 100 722 l 100 194 q 160 48 100 108 q 306 -12 221 -12 l 1081 -12 q 1226 48 1165 -12 q 1286 194 1286 108 "},"x":{"ha":1135,"x_min":33,"x_max":1101,"o":"m 1093 699 q 1097 714 1101 706 q 1085 724 1094 724 l 915 724 q 856 701 881 724 l 588 468 q 574 463 582 463 q 560 468 565 463 l 293 701 q 232 724 267 724 l 64 724 q 50 714 53 724 q 54 699 46 706 l 439 367 q 439 343 453 356 l 42 13 q 38 -3 33 6 q 51 -12 40 -12 l 221 -12 q 279 8 253 -12 l 560 243 q 588 243 574 254 l 856 10 q 915 -12 881 -12 l 1083 -12 q 1097 -4 1094 -12 q 1093 13 1101 6 l 708 343 q 708 367 694 356 l 1093 699 "},"y":{"ha":1253,"x_min":97,"x_max":1156,"o":"m 1156 -64 l 1156 686 q 1118 722 1156 722 l 1038 722 q 1000 686 1000 722 l 1000 161 q 982 142 1000 142 l 304 142 q 267 157 282 142 q 253 194 253 172 l 253 686 q 215 722 253 722 l 133 722 q 97 686 97 722 l 97 194 q 158 48 97 108 q 304 -12 218 -12 l 982 -12 q 1000 -31 1000 -12 l 1000 -64 q 985 -101 1000 -86 q 949 -115 971 -115 l 164 -115 q 126 -153 126 -115 l 126 -235 q 164 -271 126 -271 l 949 -271 q 1095 -210 1035 -271 q 1156 -64 1156 -150 "},"z":{"ha":1261,"x_min":69,"x_max":1192,"o":"m 1192 24 l 1192 106 q 1156 142 1192 142 l 394 142 q 388 147 389 142 q 392 156 386 154 l 1124 503 q 1190 607 1190 535 q 1156 688 1190 654 q 1074 722 1122 722 l 106 722 q 69 686 69 722 l 69 604 q 106 568 69 568 l 867 568 q 874 563 872 568 q 869 554 875 557 l 138 207 q 71 103 71 176 q 105 22 71 56 q 188 -12 139 -12 l 1156 -12 q 1192 24 1192 -12 "},"{":{"ha":767,"x_min":78,"x_max":689,"o":"m 689 24 l 689 106 q 653 142 689 142 l 418 142 q 382 157 397 142 q 367 194 367 172 l 367 710 q 382 746 367 731 q 418 761 397 761 l 653 761 q 689 799 689 761 l 689 879 q 653 917 689 917 l 418 917 q 273 856 333 917 q 213 710 213 796 l 213 546 q 193 526 213 526 l 114 526 q 78 490 78 526 l 78 408 q 114 372 78 372 l 193 372 q 213 354 213 372 l 213 194 q 273 48 213 108 q 418 -12 333 -12 l 653 -12 q 689 24 689 -12 "},"|":{"ha":350,"x_min":97,"x_max":253,"o":"m 253 22 l 253 879 q 215 917 253 917 l 135 917 q 97 879 97 917 l 97 22 q 135 -14 97 -14 l 215 -14 q 253 22 253 -14 "},"}":{"ha":782,"x_min":85,"x_max":697,"o":"m 472 22 q 419 -3 447 6 l 419 907 q 472 881 447 897 l 472 22 m 472 -278 l 472 22 q 563 194 563 85 l 563 354 q 581 372 563 372 l 661 372 q 697 408 697 372 l 697 490 q 661 526 697 526 l 581 526 q 563 546 563 526 l 563 710 q 472 881 563 819 l 472 1111 l 419 1111 l 419 907 q 356 917 389 917 l 122 917 q 85 879 85 917 l 85 799 q 122 761 85 761 l 356 761 q 393 746 378 761 q 408 710 408 731 l 408 194 q 393 157 408 172 q 356 142 378 142 l 122 142 q 85 106 85 142 l 85 24 q 122 -12 85 -12 l 356 -12 q 419 -3 389 -12 l 419 -278 l 472 -278 "},"~":{"ha":1101,"x_min":75,"x_max":1025,"o":"m 1001 728 q 999 779 1025 756 l 938 833 q 886 831 910 858 l 738 664 q 706 649 725 650 q 674 663 686 649 l 565 769 q 419 831 506 831 q 274 769 333 831 l 100 597 q 100 546 75 571 l 158 488 q 183 476 169 476 q 210 488 199 476 l 383 661 q 419 675 399 675 q 456 661 440 675 l 564 553 q 710 494 625 492 q 853 561 796 497 l 1001 728 "}}}
